<svg width="30" height="30" viewBox="0 0 30 30" fill="none" xmlns="http://www.w3.org/2000/svg">
<path d="M14.5 26.75C20.7132 26.75 25.75 21.7132 25.75 15.5C25.75 9.2868 20.7132 4.25 14.5 4.25C8.2868 4.25 3.25 9.2868 3.25 15.5C3.25 17.5491 3.79784 19.4703 4.75505 21.125L3.8125 26.1875L8.875 25.2449C10.5297 26.2022 12.4509 26.75 14.5 26.75Z" stroke="#F8F3FC" stroke-width="1.5" stroke-linecap="round" stroke-linejoin="round"/>
<path d="M9.85938 10.2266C10.117 9.94531 10.4208 9.875 10.6086 9.875H10.6212C10.701 9.875 10.7807 9.875 10.8584 9.87555C10.9584 9.87626 11.0551 9.87788 11.1448 9.88159C11.345 9.88947 11.5672 9.90031 11.7776 10.3672C12.0273 10.9229 12.5736 12.3096 12.6433 12.4502C12.7131 12.5908 12.7609 12.7556 12.6675 12.9424C12.5741 13.1291 12.5257 13.2462 12.3862 13.4104C12.2456 13.5747 12.0926 13.7766 11.9666 13.9026C11.8259 14.0421 11.6782 14.1959 11.8413 14.4761C12.0056 14.7573 12.5688 15.6748 13.4036 16.4185C14.4768 17.3747 15.3811 17.672 15.6624 17.8137C15.9436 17.9543 16.1067 17.9291 16.271 17.7412C16.4352 17.5545 16.9719 16.9238 17.1587 16.6426C17.3454 16.3613 17.5339 16.4086 17.7915 16.502C18.0491 16.5953 19.4296 17.2732 19.7097 17.4138C19.991 17.5544 20.1783 17.6242 20.2481 17.7412C20.3178 17.8571 20.3173 18.4213 20.0833 19.0771C19.8493 19.733 18.7023 20.3648 18.187 20.4109C17.6718 20.4581 17.1901 20.6426 14.8186 19.7078C11.9645 18.5828 10.1615 15.6582 10.022 15.4714L10.0192 15.4678C9.86882 15.2669 8.875 13.9395 8.875 12.5667C8.875 11.1852 9.60175 10.5067 9.85938 10.2266Z" fill="#F8F3FC"/>
</svg>
