<svg width="30" height="30" viewBox="0 0 30 30" fill="none" xmlns="http://www.w3.org/2000/svg">
<path d="M15.537 25.8799V17.9045V17.7707V17.637C15.537 15.9899 16.9049 14.6443 18.5761 14.6443C20.1653 14.6443 21.4421 15.8719 21.5687 17.4052C21.6001 17.4786 21.6159 17.5575 21.6152 17.6372V17.637H21.5652L21.6152 17.6374L15.537 25.8799ZM15.537 25.8799H11.2891V11.5341H15.537V12.8959V12.8959C15.537 13.0145 15.5736 13.1302 15.6417 13.2277C15.7099 13.3252 15.8064 13.4 15.9185 13.4422C16.0305 13.4845 16.1529 13.4922 16.2695 13.4646C16.386 13.4369 16.4915 13.375 16.5718 13.287L16.5718 13.287M15.537 25.8799L16.5718 13.287M16.5718 13.287L16.5349 13.2533L16.5718 13.287M16.5718 13.287L16.5718 13.287M16.5718 13.287L16.5718 13.287M5.25997 9.38775L5.25997 9.38776H5.26087C6.2233 9.38776 7.0466 9.10998 7.63678 8.61425C8.22737 8.11817 8.56537 7.40246 8.56537 6.64066L8.56537 6.64026C8.56528 6.62956 8.56489 6.61886 8.5642 6.60818L8.51431 6.6114L8.56423 6.60858C8.47866 5.09856 7.1146 3.95 5.26087 3.95C4.33475 3.95 3.52036 4.20932 2.92209 4.68504C2.32321 5.16124 1.95637 5.8678 1.95637 6.64066C1.95637 8.14193 3.31879 9.29122 5.09846 9.36238C5.15083 9.37822 5.20519 9.38676 5.25997 9.38775ZM21.6152 25.8799H21.5652V25.9299H21.6152V25.8799ZM25.913 25.9299H25.863V25.8799H25.913V25.9299ZM5.26087 5.10752C5.96222 5.10752 6.47944 5.27703 6.82767 5.55331C7.17459 5.82855 7.3585 6.21342 7.38795 6.65567C7.38375 7.08555 7.21515 7.44933 6.87613 7.73409C6.53227 8.02292 5.99691 8.23024 5.26087 8.23024C4.56246 8.23024 4.02939 8.04364 3.67198 7.75308C3.31509 7.46295 3.13059 7.06719 3.13059 6.64066C3.13059 6.21516 3.30714 5.86583 3.65943 5.58571C4.01223 5.30517 4.55653 5.10752 5.26087 5.10752ZM2.54348 10.3641C2.38633 10.3641 2.23547 10.4256 2.12412 10.5352C2.01274 10.6448 1.95002 10.7937 1.95 10.9491V26.465C1.95002 26.6204 2.01274 26.7693 2.12412 26.8789C2.23547 26.9885 2.38633 27.05 2.54347 27.05H7.97826C8.13541 27.05 8.28627 26.9885 8.39762 26.8789C8.509 26.7693 8.57172 26.6204 8.57174 26.465V21.47V10.9491C8.57172 10.7937 8.509 10.6448 8.39762 10.5352C8.28627 10.4256 8.13541 10.3641 7.97827 10.3641H2.54348ZM10.6957 10.3641C10.5385 10.3641 10.3876 10.4256 10.2763 10.5352C10.1649 10.6448 10.1022 10.7937 10.1022 10.9491V26.465C10.1022 26.6204 10.1649 26.7693 10.2763 26.8789C10.3876 26.9885 10.5385 27.05 10.6956 27.05H16.1304C16.2876 27.05 16.4384 26.9885 16.5498 26.8789C16.6612 26.7693 16.7239 26.6204 16.7239 26.465V17.9045V17.7707V17.637C16.7239 16.625 17.5462 15.8144 18.5761 15.8144C19.606 15.8144 20.4283 16.625 20.4283 17.637V26.465C20.4283 26.6204 20.491 26.7693 20.6024 26.8789C20.7137 26.9885 20.8646 27.05 21.0217 27.05H26.4565C26.6137 27.05 26.7645 26.9885 26.8759 26.8789C26.9873 26.7693 27.05 26.6204 27.05 26.465V17.3695C27.05 15.1517 26.3881 13.3896 25.2671 12.1857C24.1459 10.9817 22.5826 10.3641 20.906 10.3641C18.8376 10.3641 17.559 11.085 16.7239 11.7058V10.9491C16.7239 10.7937 16.6612 10.6448 16.5498 10.5352C16.4384 10.4256 16.2876 10.3641 16.1304 10.3641H10.6957ZM7.38478 11.5341V21.47V25.8799H3.13696V11.5341H7.38478Z" fill="#F8F3FC" stroke="#F8F3FC" stroke-width="0.1"/>
</svg>
