<svg width="30" height="30" viewBox="0 0 30 30" fill="none" xmlns="http://www.w3.org/2000/svg">
<path d="M15 20C17.7614 20 20 17.7614 20 15C20 12.2386 17.7614 10 15 10C12.2386 10 10 12.2386 10 15C10 17.7614 12.2386 20 15 20Z" stroke="#F8F3FC" stroke-width="1.5" stroke-linecap="round" stroke-linejoin="round"/>
<path d="M3.75 21.25V8.75C3.75 5.98858 5.98858 3.75 8.75 3.75H21.25C24.0114 3.75 26.25 5.98858 26.25 8.75V21.25C26.25 24.0114 24.0114 26.25 21.25 26.25H8.75C5.98858 26.25 3.75 24.0114 3.75 21.25Z" stroke="#F8F3FC" stroke-width="1.5"/>
<path d="M21.875 8.1375L21.8875 8.12361" stroke="#F8F3FC" stroke-width="1.5" stroke-linecap="round" stroke-linejoin="round"/>
</svg>
