<svg width="30" height="30" viewBox="0 0 30 30" fill="none" xmlns="http://www.w3.org/2000/svg">
<path d="M17.5 15L13.125 17.5V12.5L17.5 15Z" fill="#F8F3FC" stroke="#F8F3FC" stroke-width="1.5" stroke-linecap="round" stroke-linejoin="round"/>
<path d="M2.5 17.4076V12.5925C2.5 9.70149 2.5 8.25599 3.40027 7.32554C4.30054 6.39509 5.7292 6.34798 8.58653 6.25376C10.7259 6.18321 13.0744 6.125 15 6.125C16.9256 6.125 19.2741 6.18321 21.4135 6.25376C24.2708 6.34798 25.6995 6.39509 26.5997 7.32554C27.5 8.25599 27.5 9.70149 27.5 12.5925V17.4076C27.5 20.2986 27.5 21.744 26.5997 22.6745C25.6995 23.6049 24.2708 23.6521 21.4136 23.7463C19.2742 23.8169 16.9256 23.8751 15 23.8751C13.0744 23.8751 10.7258 23.8169 8.58643 23.7463C5.72915 23.6521 4.30052 23.6049 3.40026 22.6745C2.5 21.744 2.5 20.2986 2.5 17.4076Z" stroke="#F8F3FC" stroke-width="1.5"/>
</svg>
