<svg width="149" height="15" viewBox="0 0 149 15" fill="none" xmlns="http://www.w3.org/2000/svg">
<path d="M143.806 6.43548C146.611 6.43548 148.014 7.83808 148.014 10.6433C148.014 13.4485 146.611 14.8511 143.806 14.8511H133.41V13.861C133.41 13.201 133.74 12.871 134.4 12.871H143.311C144.796 12.871 145.539 12.1284 145.539 10.6433C145.539 9.15818 144.796 8.41563 143.311 8.41563H137.371C134.565 8.41563 133.163 7.01302 133.163 4.20781C133.163 1.40261 134.565 0 137.371 0H147.519V0.990073C147.519 1.65012 147.189 1.98015 146.529 1.98015H137.866C136.381 1.98015 135.638 2.7227 135.638 4.20781C135.638 5.69292 136.381 6.43548 137.866 6.43548H143.806Z" fill="#F8F3FC"/>
<path d="M127.717 0H129.202V9.65322C129.202 13.1185 127.47 14.8511 124.004 14.8511H119.302C115.836 14.8511 114.104 13.1185 114.104 9.65322V0H115.589C116.249 0 116.579 0.330024 116.579 0.990073V9.65322C116.579 11.7984 117.652 12.871 119.797 12.871H123.509C125.655 12.871 126.727 11.7984 126.727 9.65322V0.990073C126.727 0.330024 127.057 0 127.717 0Z" fill="#F8F3FC"/>
<path d="M109.153 12.871C109.813 12.871 110.143 13.201 110.143 13.861V14.8511H96.7774V0H98.2625C98.9225 0 99.2526 0.330024 99.2526 0.990073V12.871H109.153Z" fill="#F8F3FC"/>
<path d="M85.8865 0L92.817 14.8511H91.3525C90.6924 14.8511 90.1974 14.5211 89.888 13.861L87.8254 9.4057H81.4724L79.4097 13.861C79.1003 14.5211 78.6053 14.8511 77.9452 14.8511H76.4808L83.4113 0H85.8865ZM81.4724 9.4057H87.8254L84.6489 2.61957L81.4724 9.4057Z" fill="#F8F3FC"/>
<path d="M67.3225 0C70.7877 0 72.5204 1.73263 72.5204 5.19789V9.65322C72.5204 13.1185 70.7877 14.8511 67.3225 14.8511H57.4218V0H67.3225ZM70.0452 9.65322V5.19789C70.0452 3.05273 68.9726 1.98015 66.8275 1.98015H59.8969V12.871H66.8275C68.9726 12.871 70.0452 11.7984 70.0452 9.65322Z" fill="#F8F3FC"/>
<path d="M52.4713 12.871C53.1313 12.871 53.4613 13.201 53.4613 13.861V14.8511H39.3528V0H53.2138V0.990073C53.2138 1.65012 52.8838 1.98015 52.2238 1.98015H41.828V6.43548H52.4713V8.41563H41.828V12.871H52.4713Z" fill="#F8F3FC"/>
<path d="M28.4619 0L35.3924 14.8511H33.9279C33.2679 14.8511 32.7728 14.5211 32.4634 13.861L30.4008 9.4057H24.0478L21.9852 13.861C21.6758 14.5211 21.1807 14.8511 20.5207 14.8511H19.0562L25.9867 0H28.4619ZM24.0478 9.4057H30.4008L27.2243 2.61957L24.0478 9.4057Z" fill="#F8F3FC"/>
<path d="M9.89791 0C13.3632 0 15.0958 1.73263 15.0958 5.19789V9.65322C15.0958 13.1185 13.3632 14.8511 9.89791 14.8511H-0.00283051V0H9.89791ZM12.6206 9.65322V5.19789C12.6206 3.05273 11.548 1.98015 9.40287 1.98015H2.47235V12.871H9.40287C11.548 12.871 12.6206 11.7984 12.6206 9.65322Z" fill="#F8F3FC"/>
</svg>
